<?xml version="1.0" standalone="no"?>
<!DOCTYPE svg PUBLIC "-//W3C//DTD SVG 20010904//EN"
 "http://www.w3.org/TR/2001/REC-SVG-20010904/DTD/svg10.dtd">
<svg version="1.0" xmlns="http://www.w3.org/2000/svg"
 width="589.000000pt" height="589.000000pt" viewBox="0 0 589.000000 589.000000"
 preserveAspectRatio="xMidYMid meet">
<metadata>
Created by potrace 1.14, written by Peter Selinger 2001-2017
</metadata>
<g transform="translate(0.000000,589.000000) scale(0.100000,-0.100000)"
fill="#000000" stroke="none">
<path d="M0 2950 l0 -2780 2945 0 2945 0 0 2780 0 2780 -2945 0 -2945 0 0
-2780z m1540 1805 c5 -6 35 -17 65 -24 30 -7 55 -15 55 -19 0 -4 -28 -14 -62
-22 l-63 -15 -14 -62 c-8 -35 -17 -63 -20 -63 -3 0 -13 28 -21 63 l-15 62 -57
15 c-69 18 -77 26 -41 34 105 26 99 21 113 83 18 82 22 84 37 18 7 -32 18 -64
23 -70z m953 -851 l22 -7 -23 -8 c-12 -5 -22 -16 -22 -26 0 -16 -2 -16 -18 3
-9 12 -24 24 -32 27 -12 4 -12 6 2 6 10 1 23 11 30 24 10 18 13 19 16 5 2 -9
13 -20 25 -24z m-1413 -14 c475 -34 938 -180 1331 -422 322 -198 684 -546 896
-863 313 -470 475 -978 490 -1541 5 -190 -6 -430 -23 -487 -5 -16 -25 -18
-275 -17 -148 1 -274 -2 -280 -6 -6 -3 -239 -3 -519 1 l-508 7 9 30 c23 80 87
154 164 189 61 28 169 26 228 -5 56 -28 61 -19 10 23 -101 84 -270 81 -371 -5
-49 -42 -90 -122 -99 -192 l-6 -52 -211 0 c-313 0 -554 27 -725 81 -317 100
-596 402 -670 724 -57 252 -55 188 -58 1396 l-4 1117 113 11 c214 22 321 24
508 11z m4135 -1035 c-6 -5 -14 -14 -16 -20 -2 -5 -14 0 -26 13 -15 14 -18 22
-9 22 8 0 16 7 20 15 5 13 8 13 24 -2 15 -14 16 -20 7 -28z m-544 -1220 c7
-30 17 -59 23 -64 6 -5 35 -14 64 -21 29 -7 50 -15 47 -19 -4 -3 -32 -13 -63
-21 l-56 -15 -17 -65 c-9 -36 -18 -63 -19 -60 -1 3 -9 32 -18 65 l-17 60 -57
15 c-69 18 -77 26 -41 34 106 26 99 21 114 86 7 33 16 60 20 60 4 0 13 -25 20
-55z m-561 -859 c0 -8 8 -17 18 -21 16 -6 16 -7 0 -16 -10 -6 -18 -17 -18 -24
0 -8 -4 -15 -10 -15 -5 0 -10 6 -10 14 0 8 -10 18 -22 22 l-23 7 23 10 c12 6
22 16 22 24 0 7 5 13 10 13 6 0 10 -6 10 -14z"/>
<path d="M2175 3416 c-95 -41 -134 -180 -70 -253 l24 -28 -15 46 c-45 135 91
259 223 204 33 -14 34 -14 22 2 -34 40 -125 55 -184 29z"/>
<path d="M3070 1440 c-251 -52 -394 -327 -292 -560 24 -54 78 -130 93 -130 6
0 1 13 -11 29 -48 68 -69 184 -50 277 27 131 131 260 247 305 109 42 283 26
357 -32 14 -11 26 -16 26 -10 0 18 -90 79 -145 100 -65 24 -164 33 -225 21z"/>
</g>
</svg>
