<?xml version="1.0" standalone="no"?>
<!DOCTYPE svg PUBLIC "-//W3C//DTD SVG 20010904//EN"
 "http://www.w3.org/TR/2001/REC-SVG-20010904/DTD/svg10.dtd">
<svg version="1.0" xmlns="http://www.w3.org/2000/svg"
 width="384.000000pt" height="384.000000pt" viewBox="0 0 384.000000 384.000000"
 preserveAspectRatio="xMidYMid meet">
<metadata>
Created by potrace 1.14, written by Peter Selinger 2001-2017
</metadata>
<g transform="translate(0.000000,384.000000) scale(0.100000,-0.100000)"
fill="#000000" stroke="none">
<path d="M2332 3167 l-163 -163 35 -58 c39 -64 52 -123 43 -196 -17 -143 -148
-260 -292 -260 -58 0 -177 -12 -262 -26 l-43 -7 0 167 0 166 -240 0 -240 0 0
-585 0 -585 82 86 c135 141 297 235 480 279 35 9 128 20 208 25 168 11 260 33
370 90 401 210 540 724 298 1103 -38 59 -95 127 -108 127 -3 0 -79 -73 -168
-163z"/>
<path d="M2645 2133 c-190 -203 -395 -290 -725 -307 -126 -7 -228 -33 -330
-86 -190 -100 -331 -274 -392 -486 -29 -101 -31 -293 -4 -394 25 -96 99 -238
155 -301 l50 -54 166 166 166 165 -35 58 c-39 64 -52 123 -43 196 17 143 147
259 292 260 64 0 207 14 268 25 l37 7 0 -166 0 -166 240 0 240 0 0 585 c0 322
-1 585 -2 584 -2 0 -39 -39 -83 -86z"/>
</g>
</svg>
