<?xml version="1.0" standalone="no"?>
<!DOCTYPE svg PUBLIC "-//W3C//DTD SVG 20010904//EN"
 "http://www.w3.org/TR/2001/REC-SVG-20010904/DTD/svg10.dtd">
<svg version="1.0" xmlns="http://www.w3.org/2000/svg"
 width="144.000000pt" height="144.000000pt" viewBox="0 0 144.000000 144.000000"
 preserveAspectRatio="xMidYMid meet">
<metadata>
Created by potrace 1.14, written by Peter Selinger 2001-2017
</metadata>
<g transform="translate(0.000000,144.000000) scale(0.100000,-0.100000)"
fill="#000000" stroke="none">
<path d="M3 758 c2 -569 5 -689 17 -720 l15 -38 702 0 703 0 0 259 c0 251 -1
260 -20 266 -18 6 -18 8 -5 21 9 9 14 31 14 52 l-2 37 -6 -35 c-6 -31 -7 -32
-13 -12 -4 14 -14 22 -28 22 -20 0 -21 2 -9 17 10 12 4 10 -18 -5 -56 -39 -58
-35 -56 95 2 70 7 119 13 121 5 2 7 15 4 30 -5 21 1 16 24 -20 44 -67 61 -102
71 -145 l9 -38 1 35 c0 19 -11 62 -25 95 -14 33 -28 69 -32 80 -5 18 -4 19 14
5 19 -14 19 -14 0 8 -11 12 -15 22 -11 22 4 0 1 8 -7 18 -29 32 -51 86 -74
177 -21 86 -86 281 -105 318 -9 16 -48 17 -594 17 l-585 0 3 -682z m1001 26
c1 -51 -1 -56 -33 -76 l-34 -22 6 35 c4 19 9 64 13 101 l7 67 20 -25 c14 -18
20 -42 21 -80z m283 -106 c-2 -24 -4 -7 -4 37 0 44 2 63 4 43 2 -21 2 -57 0
-80z m-612 -13 c-14 -51 -18 -55 -46 -55 -17 0 -29 3 -27 8 10 24 84 118 86
111 2 -5 -4 -33 -13 -64z m365 36 c0 -11 -9 -21 -22 -24 -13 -2 -31 -8 -40
-12 -34 -14 -18 12 20 32 20 12 38 22 40 22 1 1 2 -7 2 -18z m-10 -88 c0 -10
-32 -43 -42 -43 -5 0 -6 5 -3 10 3 6 1 10 -4 10 -6 0 -11 4 -11 9 0 8 10 12
53 20 4 0 7 -2 7 -6z m47 -66 c8 -64 -30 -200 -72 -263 -49 -75 -142 -176
-178 -196 -46 -25 -88 -22 -170 12 -109 46 -208 117 -223 160 -24 66 -13 173
22 219 2 2 15 -4 28 -13 37 -24 112 -21 144 5 l27 22 -28 -7 c-25 -6 -27 -5
-18 12 7 14 18 18 40 14 l30 -4 -20 -51 c-11 -28 -37 -74 -57 -101 -41 -56
-32 -53 44 11 31 26 62 44 80 45 20 1 43 16 72 45 31 33 42 39 42 26 1 -10 12
-31 25 -48 28 -34 29 -33 15 14 -7 24 -6 42 5 66 7 19 11 36 7 39 -3 3 2 6 12
6 10 0 14 -5 11 -11 -5 -7 5 -8 32 -3 47 8 63 16 87 43 25 27 37 16 43 -42z
m-482 43 c5 -9 -53 -46 -60 -38 -6 6 9 24 30 36 25 14 23 14 30 2z m-120 -90
c3 -6 -4 -10 -17 -10 -18 0 -20 2 -8 10 19 12 18 12 25 0z m644 -139 c-6 -18
-13 -30 -15 -28 -2 2 1 18 7 36 6 18 13 30 15 28 2 -2 -1 -18 -7 -36z m-22
-63 c-3 -8 -6 -5 -6 6 -1 11 2 17 5 13 3 -3 4 -12 1 -19z m30 0 c-3 -8 -6 -5
-6 6 -1 11 2 17 5 13 3 -3 4 -12 1 -19z"/>
<path d="M815 300 c-7 -11 2 -30 13 -30 4 0 18 9 32 20 l25 20 -32 0 c-17 0
-35 -4 -38 -10z"/>
<path d="M805 214 c-27 -7 -77 -14 -110 -15 -55 -1 -57 -2 -25 -10 42 -10 143
-1 188 18 62 26 30 30 -53 7z"/>
<path d="M1398 643 c7 -3 16 -2 19 1 4 3 -2 6 -13 5 -11 0 -14 -3 -6 -6z"/>
</g>
</svg>
