<?xml version="1.0" standalone="no"?>
<!DOCTYPE svg PUBLIC "-//W3C//DTD SVG 20010904//EN"
 "http://www.w3.org/TR/2001/REC-SVG-20010904/DTD/svg10.dtd">
<svg version="1.0" xmlns="http://www.w3.org/2000/svg"
 width="144.000000pt" height="144.000000pt" viewBox="0 0 144.000000 144.000000"
 preserveAspectRatio="xMidYMid meet">
<metadata>
Created by potrace 1.14, written by Peter Selinger 2001-2017
</metadata>
<g transform="translate(0.000000,144.000000) scale(0.100000,-0.100000)"
fill="#000000" stroke="none">
<path d="M0 720 l0 -720 720 0 720 0 0 720 0 720 -720 0 -720 0 0 -720z m951
615 c-1 -44 -6 -129 -11 -190 -5 -60 -6 -111 -1 -113 49 -17 97 -53 118 -89
l24 -42 -48 -24 c-62 -32 -210 -77 -251 -77 -29 0 -32 3 -32 29 0 25 5 30 44
41 l43 12 6 96 c4 54 9 172 13 264 7 182 6 178 68 175 l29 -2 -2 -80z m-492
-442 c0 -35 -3 -63 -8 -63 -15 0 -101 39 -101 45 0 16 45 91 68 114 l27 26 6
-30 c4 -16 7 -58 8 -92z m671 -122 c12 -41 24 -117 27 -169 6 -91 5 -95 -18
-114 -32 -26 -179 -98 -199 -98 -20 0 -61 81 -44 87 6 2 20 10 30 18 17 13 16
14 -13 4 -27 -9 -36 -7 -60 10 -48 34 -78 36 -108 7 -31 -31 -37 -32 -60 -6
-24 26 -75 26 -109 -1 -24 -19 -28 -19 -56 -5 -26 13 -30 13 -30 0 0 -9 4 -13
9 -10 4 3 15 0 24 -7 15 -11 15 -16 3 -52 -13 -36 -17 -40 -42 -36 -31 3 -131
51 -178 84 l-29 20 6 101 c7 124 39 241 65 232 9 -3 51 -17 92 -31 56 -20 86
-25 117 -20 31 4 49 2 69 -11 24 -16 35 -17 122 -6 84 11 274 65 320 91 25 14
37 -4 62 -88z"/>
<path d="M833 758 c-65 -31 -43 -148 29 -148 38 0 68 32 68 74 0 58 -50 96
-97 74z"/>
<path d="M492 650 c0 -14 2 -19 5 -12 2 6 2 18 0 25 -3 6 -5 1 -5 -13z"/>
</g>
</svg>
